# Blender 3.3.0
# www.blender.org
o Prism
v 0.014016 1.414777 0.999013 0.0000 1.0000 0.0000
v 0.014016 1.414777 -1.000987 0.0000 1.0000 0.0000
v 1.428230 0.000563 0.999013 1.0000 0.0000 0.0000
v 1.428230 0.000563 -1.000987 1.0000 0.0000 0.0000
v -1.400197 0.000563 0.999013 0.0000 0.0000 1.0000
v -1.400197 0.000563 -1.000987 0.0000 0.0000 1.0000
vn -0.0000 -0.0000 -1.0000
vn -0.0000 -1.0000 -0.0000
vn -0.0000 -0.0000 1.0000
vn 0.7071 0.7071 -0.0000
vn -0.7071 0.7071 -0.0000
vt 0.625000 0.500000
vt 0.375000 0.500000
vt 0.625000 0.750000
vt 0.375000 0.750000
vt 0.625000 0.250000
vt 0.375000 0.250000
s 0
f 6/6/1 2/2/1 4/4/1
f 4/4/2 5/5/2 6/6/2
f 1/1/3 5/5/3 3/3/3
f 2/2/4 3/3/4 4/4/4
f 6/6/5 1/1/5 2/2/5
f 4/4/2 3/3/2 5/5/2
f 2/2/4 1/1/4 3/3/4
f 6/6/5 5/5/5 1/1/5
